# File created by Blade
# Date/Time:  Mon Nov 18 17:26:10 2013
# Frame Rate: 100.000 fps
#------------------------------------------------------
:FULLY-SPECIFIED
:DEGREES
47
root -38.451535 -1.606979 41.020508 6.495773 -1.774853 27.421079
Spine 17.529712 -0.430115 0.683359
Spine1 6.318733 0.032279 2.220178
Spine2 -22.979587 1.663341 -0.283758
NeckDummy 0.050183 0.486074 1.011925 13.270283 -0.212195 -0.638037
Neck 3.420441 -8.243629 38.641799
Head 0.264310 -0.156705 -0.281716 2.198879 1.679268 1.039864
LeftShoulderDummy 0.000068 0.473219 1.021165 13.298565 -0.369395 -0.404173
LeftShoulder 3.321495 -4.261803 14.858307
LeftArm 12.176129 37.274256 32.995972
LeftForeArm 60.837955
LeftForeArmRoll 12.778930
LeftHand -32.162571 -17.295487 0.881312
LeftHandThumb1 15.587176 3.424893
LeftHandIndex1 -1.948635 45.058917
LeftHandPinky1 -1.659325 62.380367
RightShoulderDummy 0.053078 0.497404 0.997947 13.274454 0.211693 0.663510
RightShoulder 11.693023 1.754574 10.703619
RightArm -17.068621 62.732925 20.814844
RightForeArm 93.690357
RightForeArmRoll 24.094519
RightHand -45.606312 -24.931604 6.275445
RightHandThumb1 11.998836 8.865327
RightHandIndex1 4.556380 47.092944
RightHandPinky1 10.770643 70.682319
LeftUpLeg -8.446732 9.585125 -26.952521
LeftLeg 48.270183
LeftFoot 0.019620 -0.916367 -1.696886 -14.171042 17.395815 -22.301300
LeftToeBase -2.118754
RightUpLeg -5.447292 18.034617 -33.021883
RightLeg 55.051547
RightFoot 0.119657 0.769030 0.342140 0.167309 15.244554 -11.819054
RightToeBase -7.800945
48
root -38.619930 -1.630885 41.132483 6.442587 -1.562984 27.454313
Spine 17.336585 -0.496014 0.762366
Spine1 6.252023 -0.012718 2.342130
Spine2 -22.983234 1.658632 -0.326520
NeckDummy 0.050118 0.489564 1.014506 13.233618 -0.173887 -0.724200
Neck 3.501230 -8.222687 38.289167
Head 0.260233 -0.167941 -0.316565 2.646710 1.604353 1.065608
LeftShoulderDummy 0.000596 0.474302 1.023407 13.263449 -0.330306 -0.489408
LeftShoulder 3.217279 -4.281575 14.891079
LeftArm 11.898019 37.574024 32.614703
LeftForeArm 60.314425
LeftForeArmRoll 12.101083
LeftHand -32.066071 -17.310426 0.963534
LeftHandThumb1 15.256102 3.546290
LeftHandIndex1 -1.575325 44.171861
LeftHandPinky1 -0.865514 62.169437
RightShoulderDummy 0.052051 0.501884 1.001341 13.238480 0.175515 0.746712
RightShoulder 11.757689 1.788895 10.722919
RightArm -17.004217 63.188019 20.517794
RightForeArm 93.562781
RightForeArmRoll 25.330042
RightHand -45.749505 -25.210224 6.334112
RightHandThumb1 11.804812 8.973561
RightHandIndex1 4.628087 47.153503
RightHandPinky1 10.618832 70.247520
LeftUpLeg -8.665091 9.620722 -26.889409
LeftLeg 48.268251
LeftFoot 0.024919 -0.926506 -1.693587 -14.417651 17.543421 -22.121279
LeftToeBase -2.090843
RightUpLeg -5.944500 18.275459 -31.506280
RightLeg 54.020446
RightFoot 0.123276 0.737956 0.295029 0.163673 14.521262 -10.036451
RightToeBase -8.596442
49
root -38.798833 -1.663974 41.248060 6.377811 -1.351920 27.448712
Spine 17.174589 -0.553048 0.811066
Spine1 6.198079 -0.050371 2.404926
Spine2 -23.017784 1.618814 -0.331582
NeckDummy 0.049746 0.490324 1.019989 13.185230 -0.173076 -0.684784
Neck 3.730348 -8.369552 38.074484
Head 0.265541 -0.175804 -0.346382 3.037125 1.679483 1.079033
LeftShoulderDummy 0.001724 0.474485 1.029017 13.216858 -0.324021 -0.471092
LeftShoulder 3.195484 -4.471324 14.977971
LeftArm 11.455395 37.665852 32.105417
LeftForeArm 59.852659
LeftForeArmRoll 12.000660
LeftHand -32.343748 -17.645325 1.290644
LeftHandThumb1 15.381301 3.532290
LeftHandIndex1 -1.685846 44.770466
LeftHandPinky1 -0.766176 63.105034
RightShoulderDummy 0.051183 0.501489 1.007018 13.191779 0.175092 0.713187
RightShoulder 11.809526 2.002379 10.728676
RightArm -16.747983 63.704031 20.386468
RightForeArm 93.445420
RightForeArmRoll 25.719493
RightHand -45.935703 -25.591728 6.448732
RightHandThumb1 11.811871 9.177953
RightHandIndex1 4.705631 47.445777
RightHandPinky1 10.202987 70.149429
LeftUpLeg -8.774559 9.734023 -26.865002
LeftLeg 48.327924
LeftFoot 0.033628 -0.941087 -1.699331 -14.690119 17.545276 -21.935671
LeftToeBase -2.062681
RightUpLeg -6.556836 18.417860 -29.881142
RightLeg 52.713879
RightFoot -0.063369 0.753153 0.351558 -5.210947 14.189283 -10.049078
RightToeBase -8.350154
50
root -38.982079 -1.708853 41.368841 6.319105 -1.146086 27.347403
Spine 17.006200 -0.614028 0.879618
Spine1 6.143839 -0.098282 2.510281
Spine2 -23.006733 1.517388 -0.355942
NeckDummy 0.043812 0.490062 1.019145 13.162852 -0.169363 -0.724022
Neck 3.856452 -8.441716 37.872728
Head 0.267485 -0.182644 -0.374203 3.380941 1.700900 1.100791
LeftShoulderDummy -0.003932 0.473266 1.028385 13.194880 -0.321393 -0.495294
LeftShoulder 3.110268 -4.595155 15.072515
LeftArm 11.068612 37.682275 31.449391
LeftForeArm 59.463051
LeftForeArmRoll 11.199646
LeftHand -32.197255 -17.379088 1.045149
LeftHandThumb1 15.302734 3.398377
LeftHandIndex1 -1.886610 44.899146
LeftHandPinky1 -0.902892 63.452079
RightShoulderDummy 0.044405 0.501251 1.006406 13.170273 0.174065 0.744434
RightShoulder 11.820273 2.074900 10.717262
RightArm -16.515811 64.154144 20.192602
RightForeArm 93.451307
RightForeArmRoll 26.255099
RightHand -45.890762 -25.493009 6.376946
RightHandThumb1 11.795532 8.581631
RightHandIndex1 4.277260 47.061913
RightHandPinky1 10.308208 69.613190
LeftUpLeg -8.713077 9.953015 -26.887120
LeftLeg 48.509559
LeftFoot 0.037206 -0.954534 -1.698820 -15.063590 17.445938 -21.727799
LeftToeBase -2.124200
RightUpLeg -7.132498 18.490705 -28.201713
RightLeg 51.090288
RightFoot -0.188539 0.793939 0.380088 -10.540012 14.803369 -11.311383
RightToeBase -7.928587
51
root -39.179992 -1.763453 41.486087 6.278001 -0.997265 27.220282
Spine 16.871478 -0.625614 0.927110
Spine1 6.107690 -0.115589 2.582501
Spine2 -23.060955 1.423725 -0.390789
NeckDummy 0.040339 0.491696 1.024113 13.155285 -0.149247 -0.757371
Neck 4.029316 -8.560397 37.788945
Head 0.269786 -0.191332 -0.393111 3.645800 1.702563 1.133430
LeftShoulderDummy -0.005447 0.474048 1.033022 13.188910 -0.295144 -0.538681
LeftShoulder 3.113108 -4.836357 15.272547
LeftArm 10.675443 37.509159 30.741022
LeftForeArm 59.009307
LeftForeArmRoll 11.381995
LeftHand -32.040257 -16.903332 0.823452
LeftHandThumb1 15.164072 3.407461
LeftHandIndex1 -1.623926 44.870816
LeftHandPinky1 -0.867859 63.024313
RightShoulderDummy 0.040962 0.503210 1.011901 13.163670 0.153424 0.778374
RightShoulder 11.811397 2.171631 10.703313
RightArm -16.279130 64.542036 20.120807
RightForeArm 93.457484
RightForeArmRoll 26.415699
RightHand -45.773214 -25.723856 6.285865
RightHandThumb1 11.684575 8.593702
RightHandIndex1 4.021360 46.888942
RightHandPinky1 10.457592 69.012081
LeftUpLeg -8.624275 10.300214 -27.027847
LeftLeg 48.801529
LeftFoot 0.030974 -0.969343 -1.707730 -15.457272 17.267337 -21.478203
LeftToeBase -2.168637
RightUpLeg -7.572885 18.495807 -26.674169
RightLeg 49.133044
RightFoot -0.365521 0.808267 0.414110 -15.105124 14.316434 -12.382955
RightToeBase -7.325101
52
root -39.386643 -1.828780 41.596030 6.256729 -0.867773 27.057910
Spine 16.764489 -0.626918 0.963741
Spine1 6.062881 -0.134393 2.649656
Spine2 -23.128051 1.327959 -0.360816
NeckDummy 0.036384 0.488420 1.030284 13.127538 -0.183362 -0.634872
Neck 4.370799 -8.837545 37.725481
Head 0.268647 -0.189974 -0.409012 3.822496 1.701569 1.131483
LeftShoulderDummy -0.006715 0.472445 1.039870 13.160912 -0.322567 -0.430682
LeftShoulder 3.188336 -5.167273 15.468470
LeftArm 10.262475 37.390541 29.979795
LeftForeArm 58.552474
LeftForeArmRoll 12.511167
LeftHand -32.137757 -16.556913 0.863258
LeftHandThumb1 15.339923 3.565440
LeftHandIndex1 -1.634235 44.563557
LeftHandPinky1 -0.931052 62.678105
RightShoulderDummy 0.037112 0.496770 1.017405 13.137679 0.187409 0.654356
RightShoulder 11.752378 2.510095 10.735871
RightArm -15.939682 64.933604 20.139092
RightForeArm 93.514472
RightForeArmRoll 26.738967
RightHand -45.799443 -25.730908 6.300123
RightHandThumb1 12.205794 8.629115
RightHandIndex1 3.796594 46.530941
RightHandPinky1 10.115813 68.707532
LeftUpLeg -8.340490 10.749229 -27.307021
LeftLeg 49.239842
LeftFoot 0.044866 -0.987435 -1.722220 -15.950901 16.877968 -21.185183
LeftToeBase -2.197969
RightUpLeg -7.946611 18.429755 -25.293023
RightLeg 46.945186
RightFoot -0.399057 0.794756 0.490221 -16.309771 14.055240 -13.111848
RightToeBase -7.447225
53
root -39.609367 -1.905370 41.699394 6.312505 -0.783378 26.780323
Spine 16.615032 -0.648653 1.042694
Spine1 6.006139 -0.154204 2.780467
Spine2 -23.119563 1.200362 -0.359349
NeckDummy 0.030384 0.491789 1.032321 13.077828 -0.201583 -0.660939
Neck 4.514597 -8.897628 37.801571
Head 0.255005 -0.191292 -0.420461 3.986554 1.475400 1.140388
LeftShoulderDummy -0.010620 0.475402 1.042048 13.110938 -0.335465 -0.449362
LeftShoulder 3.226842 -5.328976 15.690427
LeftArm 9.817216 37.217455 29.211447
LeftForeArm 58.035255
LeftForeArmRoll 13.304119
LeftHand -32.226553 -16.207402 1.186072
LeftHandThumb1 15.372167 3.370728
LeftHandIndex1 -1.711736 44.212482
LeftHandPinky1 -1.176100 62.258973
RightShoulderDummy 0.030539 0.500422 1.019315 13.088316 0.206294 0.680710
RightShoulder 11.694731 2.493385 10.718295
RightArm -15.695001 65.084657 20.005364
RightForeArm 93.693341
RightForeArmRoll 27.360858
RightHand -45.853926 -25.317866 6.010451
RightHandThumb1 12.665366 8.359697
RightHandIndex1 3.552159 45.760619
RightHandPinky1 9.959550 67.793157
LeftUpLeg -7.862986 11.391213 -27.769311
LeftLeg 49.833872
LeftFoot 0.043201 -0.999755 -1.731927 -16.435436 16.348848 -20.728125
LeftToeBase -2.504799
RightUpLeg -8.181969 18.196634 -24.286595
RightLeg 45.219438
RightFoot -0.427840 0.735828 0.543272 -17.518590 14.506480 -14.306587
RightToeBase -5.835778
54
root -39.842482 -1.987929 41.790881 6.399619 -0.766344 26.471368
Spine 16.482937 -0.635539 1.103955
Spine1 5.956585 -0.170272 2.906666
Spine2 -23.109904 1.118694 -0.308194
NeckDummy 0.026992 0.491561 1.034314 13.020317 -0.252495 -0.553051
Neck 4.800263 -9.173480 38.015193
Head 0.242233 -0.186986 -0.421091 3.953618 1.369076 1.087368
LeftShoulderDummy -0.011376 0.476423 1.045055 13.053179 -0.379300 -0.366293
LeftShoulder 3.343100 -5.554636 15.961070
LeftArm 9.586763 37.116640 28.633384
LeftForeArm 57.453634
LeftForeArmRoll 13.524334
LeftHand -32.273449 -16.015007 1.238955
LeftHandThumb1 15.525638 3.871355
LeftHandIndex1 -1.885693 43.890288
LeftHandPinky1 -1.012551 62.336115
RightShoulderDummy 0.027051 0.497684 1.020130 13.031480 0.258788 0.569107
RightShoulder 11.579001 2.675847 10.715268
RightArm -15.345945 65.178564 20.023517
RightForeArm 93.857231
RightForeArmRoll 27.800010
RightHand -45.878459 -25.259703 6.085648
RightHandThumb1 13.292717 8.655285
RightHandIndex1 3.295074 45.560947
RightHandPinky1 9.493960 67.647051
LeftUpLeg -7.297361 12.178152 -28.399678
LeftLeg 50.592453
LeftFoot 0.043569 -1.009930 -1.744802 -17.078370 15.693766 -20.146262
LeftToeBase -2.877755
RightUpLeg -7.992747 17.853638 -23.698165
RightLeg 44.251987
RightFoot -0.432575 0.721320 0.568764 -17.329877 14.875277 -16.083838
RightToeBase -4.501711
